<svg width="30" height="30" viewBox="0 0 30 30" fill="none" xmlns="http://www.w3.org/2000/svg">
<path d="M11.875 10.625H18.125M15 7.5V13.75M10 18.75H20M10 22.5H20M9 27.5H21C22.4001 27.5 23.1002 27.5 23.635 27.2275C24.1054 26.9878 24.4878 26.6054 24.7275 26.135C25 25.6002 25 24.9001 25 23.5V6.5C25 5.09987 25 4.3998 24.7275 3.86502C24.4878 3.39462 24.1054 3.01217 23.635 2.77248C23.1002 2.5 22.4001 2.5 21 2.5H9C7.59987 2.5 6.8998 2.5 6.36502 2.77248C5.89462 3.01217 5.51217 3.39462 5.27248 3.86502C5 4.3998 5 5.09987 5 6.5V23.5C5 24.9001 5 25.6002 5.27248 26.135C5.51217 26.6054 5.89462 26.9878 6.36502 27.2275C6.8998 27.5 7.59987 27.5 9 27.5Z" stroke="white" stroke-width="2" stroke-linecap="round"/>
</svg>
