<svg width="40" height="40" viewBox="0 0 40 40" fill="none" xmlns="http://www.w3.org/2000/svg">
<path d="M20.0942 31.6663C26.5373 31.7183 31.7183 26.5372 31.6663 20.0941C31.6143 13.651 26.349 8.38569 19.9059 8.3337C13.4628 8.28171 8.28177 13.4627 8.33376 19.9058C8.38576 26.3489 13.6511 31.6143 20.0942 31.6663Z" stroke="white" stroke-width="1.5" stroke-linecap="round"/>
<path d="M30 10L28.2499 11.7501" stroke="white" stroke-width="1.5" stroke-linecap="round"/>
<path d="M8.33337 8.33331L11.6667 11.6666" stroke="white" stroke-width="1.5" stroke-linecap="round"/>
<path d="M28.4164 30.083L27.5 29.1667" stroke="white" stroke-width="1.5" stroke-linecap="round"/>
<path d="M10 31.7497L11.7501 29.9996" stroke="white" stroke-width="1.5" stroke-linecap="round"/>
<path d="M27.5 21.6666C27.5 23.5076 26.0077 25 24.1667 25C22.3258 25 20.8334 23.5076 20.8334 21.6666C20.8334 19.8257 22.3258 18.3333 24.1667 18.3333C26.0077 18.3333 27.5 19.8257 27.5 21.6666Z" stroke="white" stroke-width="1.5"/>
<path d="M18.3333 15C18.3333 15.9205 17.5871 16.6666 16.6667 16.6666C15.7462 16.6666 15 15.9205 15 15C15 14.0795 15.7462 13.3333 16.6667 13.3333C17.5871 13.3333 18.3333 14.0795 18.3333 15Z" stroke="white" stroke-width="1.5"/>
<ellipse cx="15" cy="21.6667" rx="1.66667" ry="1.66667" fill="white"/>
<circle cx="32.5" cy="7.5" r="2.5" stroke="white" stroke-width="1.5"/>
<circle cx="2.5" cy="2.5" r="2.5" transform="matrix(-1 0 0 1 8.33337 3.33331)" stroke="white" stroke-width="1.5"/>
<path d="M3.33337 20C3.33337 21.3807 4.45266 22.5 5.83337 22.5C7.21409 22.5 8.33337 21.3807 8.33337 20C8.33337 18.6193 7.21409 17.5 5.83337 17.5C4.45266 17.5 3.33337 18.6193 3.33337 20Z" stroke="white" stroke-width="1.5"/>
<ellipse cx="2.5" cy="2.5" rx="2.5" ry="2.5" transform="matrix(1 0 0 -1 28.4164 35.083)" stroke="white" stroke-width="1.5"/>
<ellipse cx="7.5" cy="34.1667" rx="2.5" ry="2.5" transform="rotate(180 7.5 34.1667)" stroke="white" stroke-width="1.5"/>
<path d="M22.5 5.83331C22.5 7.21402 21.3807 8.33331 20 8.33331C18.6193 8.33331 17.5 7.21402 17.5 5.83331C17.5 4.4526 18.6193 3.33331 20 3.33331C21.3807 3.33331 22.5 4.4526 22.5 5.83331Z" stroke="white" stroke-width="1.5"/>
<path d="M32.5 22.4998C33.8807 22.4998 35 21.3805 35 19.9998C35 18.6191 33.8807 17.4998 32.5 17.4998C32.2078 17.4998 31.9273 17.5499 31.6666 17.6421V22.3576C31.9273 22.4497 32.2078 22.4998 32.5 22.4998Z" stroke="white" stroke-width="1.5"/>
<path d="M17.6422 31.6666C17.9854 32.6376 18.9115 33.3333 20 33.3333C21.0886 33.3333 22.0146 32.6376 22.3578 31.6666L17.6422 31.6666Z" stroke="white" stroke-width="1.5"/>
</svg>
