<svg width="40" height="40" viewBox="0 0 40 40" fill="none" xmlns="http://www.w3.org/2000/svg">
<path d="M10 5.83337C10 5.0568 10 4.66852 10.1269 4.36223C10.296 3.95385 10.6205 3.6294 11.0289 3.46024C11.3351 3.33337 11.7234 3.33337 12.5 3.33337H27.5C28.2766 3.33337 28.6649 3.33337 28.9711 3.46024C29.3795 3.6294 29.704 3.95385 29.8731 4.36223C30 4.66852 30 5.0568 30 5.83337C30 6.60994 30 6.99823 29.8731 7.30451C29.704 7.71289 29.3795 8.03735 28.9711 8.20651C28.6649 8.33337 28.2766 8.33337 27.5 8.33337H12.5C11.7234 8.33337 11.3351 8.33337 11.0289 8.20651C10.6205 8.03735 10.296 7.71289 10.1269 7.30451C10 6.99823 10 6.60994 10 5.83337Z" stroke="white" stroke-width="1.5"/>
<path d="M7.5 30H32.5" stroke="white" stroke-width="1.5" stroke-linecap="round"/>
<path d="M7.5 16.6666H32.5" stroke="white" stroke-width="1.5" stroke-linecap="round"/>
<path d="M9.16854 12.9984L13.1737 9.79425C14.078 9.07087 14.5301 8.70919 15.0658 8.52128C15.6014 8.33337 16.1804 8.33337 17.3384 8.33337H22.7377C23.9062 8.33337 24.4904 8.33337 25.0302 8.52448C25.57 8.71559 26.0241 9.0832 26.9323 9.81841L30.8612 12.9989C32.4248 14.2647 33.3332 16.1688 33.3332 18.1805V29.2749C33.3332 30.8212 32.7957 32.3194 31.8127 33.513L31.2156 34.2381C29.9492 35.7759 28.0615 36.6667 26.0694 36.6667H14.928C13.9762 36.6667 13.5003 36.6667 13.0491 36.6048C11.7109 36.4211 10.46 35.8352 9.46213 34.9247C9.12573 34.6178 8.82104 34.2522 8.2117 33.5209C7.21328 32.3228 6.6665 30.8126 6.6665 29.253V18.2042C6.6665 16.179 7.5871 14.2636 9.16854 12.9984Z" stroke="white" stroke-width="1.5" stroke-linecap="round"/>
<path d="M19.9998 20V26.6667M16.6665 23.3333L23.3332 23.3333" stroke="white" stroke-width="1.5" stroke-linecap="round"/>
</svg>
