<svg width="38" height="38" viewBox="0 0 38 38" fill="none" xmlns="http://www.w3.org/2000/svg">
<path d="M17.4167 15.0417C17.4167 13.2183 16.7211 11.3949 15.3298 10.0036C12.5473 7.22113 8.03604 7.22113 5.25355 10.0036C3.86231 11.3949 3.16669 13.2183 3.16669 15.0417M17.4167 15.0417C17.4167 16.8652 16.7211 18.6886 15.3298 20.0799C12.5473 22.8624 8.03604 22.8624 5.25355 20.0799C3.86231 18.6886 3.16669 16.8652 3.16669 15.0417M17.4167 15.0417H3.16669" stroke="white" stroke-width="1.5" stroke-linecap="round"/>
<path d="M23.3659 11.2758C25.2209 13.1307 28.2284 13.1307 30.0834 11.2758C31.0109 10.3483 31.4747 9.13262 31.4747 7.91699C31.4747 6.70136 31.0109 5.48573 30.0834 4.55824C28.2284 2.70324 25.2209 2.70324 23.3659 4.55824C22.4384 5.48573 21.9747 6.70136 21.9747 7.91699C21.9747 9.13262 22.4384 10.3483 23.3659 11.2758Z" stroke="white" stroke-width="1.5" stroke-linecap="round"/>
<path d="M33.0999 27.5201C35.4111 25.2088 35.4111 21.4615 33.0999 19.1502C30.7886 16.8389 27.0413 16.8389 24.73 19.1502L19.1501 24.7301C16.8388 27.0414 16.8388 30.7887 19.1501 33.1C21.4614 35.4112 25.2087 35.4112 27.52 33.1L33.0999 27.5201Z" stroke="white" stroke-width="1.5"/>
<path d="M22.1666 22.1667C22.1666 22.1667 22.6121 24.4777 25.1924 27.058C27.7727 29.6384 30.0833 30.0834 30.0833 30.0834" stroke="white" stroke-width="1.5"/>
</svg>
