<svg width="40" height="40" viewBox="0 0 40 40" fill="none" xmlns="http://www.w3.org/2000/svg">
<path d="M33.8526 21.0788L34.7154 17.859C35.7225 14.1005 36.226 12.2213 35.8468 10.595C35.5474 9.31093 34.8739 8.14445 33.9116 7.2431C32.6928 6.10156 30.8135 5.59803 27.0551 4.59095C23.2966 3.58387 21.4174 3.08033 19.7911 3.45953C18.507 3.75894 17.3405 4.4324 16.4391 5.39476C15.4618 6.43828 14.9521 7.96593 14.1936 10.7427C14.0663 11.209 13.9319 11.7106 13.787 12.251L13.787 12.2513L12.9243 15.471C11.9172 19.2295 11.4136 21.1087 11.7928 22.735C12.0922 24.0191 12.7657 25.1856 13.7281 26.0869C14.9469 27.2285 16.8261 27.732 20.5846 28.7391L20.5846 28.7391C23.9722 29.6468 25.8332 30.1455 27.3583 29.9573C27.5252 29.9367 27.6881 29.9079 27.8486 29.8705C29.1327 29.5711 30.2991 28.8976 31.2005 27.9353C32.342 26.7165 32.8456 24.8372 33.8526 21.0788Z" stroke="white" stroke-width="1.5"/>
<path d="M27.3584 29.9569C27.0109 31.021 26.3999 31.9837 25.5783 32.7531C24.3595 33.8947 22.4803 34.3982 18.7218 35.4053C14.9633 36.4124 13.0841 36.9159 11.4578 36.5367C10.1737 36.2373 9.00724 35.5638 8.1059 34.6015C6.96436 33.3827 6.46082 31.5034 5.45374 27.745L4.59101 24.5252C3.58393 20.7667 3.08039 18.8875 3.45959 17.2612C3.759 15.9771 4.43246 14.8106 5.39482 13.9093C6.61363 12.7677 8.49286 12.2642 12.2513 11.2571C12.9624 11.0666 13.6062 10.8941 14.1937 10.7422" stroke="white" stroke-width="1.5"/>
<path d="M19.6281 16.6667L27.6774 18.8235" stroke="white" stroke-width="1.5" stroke-linecap="round"/>
<path d="M18.3334 21.4962L23.163 22.7903" stroke="white" stroke-width="1.5" stroke-linecap="round"/>
</svg>
