<svg width="40" height="40" viewBox="0 0 40 40" fill="none" xmlns="http://www.w3.org/2000/svg">
<path d="M5.35538 15.1184C2.65937 12.4224 2.65937 8.05133 5.35538 5.35532C8.05139 2.65931 12.4225 2.65931 15.1185 5.35532L34.6447 24.8815C37.3407 27.5775 37.3407 31.9486 34.6447 34.6446C31.9487 37.3407 27.5776 37.3407 24.8816 34.6446L5.35538 15.1184Z" stroke="black" stroke-width="1.5"/>
<path d="M20 29.7631L15.1185 34.6446C12.4225 37.3407 8.05139 37.3407 5.35538 34.6446C2.65937 31.9486 2.65937 27.5775 5.35538 24.8815L10.2369 20L20 29.7631Z" stroke="black" stroke-width="1.5"/>
<path d="M20 10.2369L24.8816 5.35532C27.5776 2.65931 31.9487 2.65931 34.6447 5.35532C37.3407 8.05133 37.3407 12.4224 34.6447 15.1184L29.7632 20L20 10.2369Z" stroke="black" stroke-width="1.5"/>
<path d="M26.4024 21.4523C26.9149 21.9649 26.9149 22.796 26.4024 23.3086C25.8898 23.8212 25.0587 23.8212 24.5461 23.3086C24.0335 22.796 24.0335 21.9649 24.5461 21.4523C25.0587 20.9398 25.8898 20.9398 26.4024 21.4523Z" fill="black"/>
<path d="M20.2149 15.2649C19.7023 14.7523 18.8713 14.7523 18.3587 15.2649C17.8461 15.7775 17.8461 16.6086 18.3587 17.1211C18.8713 17.6337 19.7023 17.6337 20.2149 17.1211C20.7275 16.6086 20.7275 15.7775 20.2149 15.2649Z" fill="black"/>
<path d="M27.9492 26.0929C28.4618 26.6055 28.4618 27.4366 27.9492 27.9492C27.4366 28.4617 26.6056 28.4617 26.093 27.9492C25.5804 27.4366 25.5804 26.6055 26.093 26.0929C26.6056 25.5803 27.4366 25.5803 27.9492 26.0929Z" fill="black"/>
<path d="M15.5743 13.718C15.0618 13.2055 14.2307 13.2055 13.7181 13.718C13.2055 14.2306 13.2055 15.0617 13.7181 15.5743C14.2307 16.0869 15.0618 16.0869 15.5743 15.5743C16.0869 15.0617 16.0869 14.2306 15.5743 13.718Z" fill="black"/>
<path d="M21.7618 19.9055C22.2744 20.4181 22.2744 21.2491 21.7618 21.7617C21.2492 22.2743 20.4181 22.2743 19.9055 21.7617C19.393 21.2491 19.393 20.4181 19.9055 19.9055C20.4181 19.3929 21.2492 19.3929 21.7618 19.9055Z" fill="black"/>
<path d="M23.3086 24.5461C23.8212 25.0587 23.8212 25.8897 23.3086 26.4023C22.7961 26.9149 21.965 26.9149 21.4524 26.4023C20.9398 25.8897 20.9398 25.0587 21.4524 24.5461C21.965 24.0335 22.7961 24.0335 23.3086 24.5461Z" fill="black"/>
<path d="M17.1212 18.3586C16.6086 17.846 15.7775 17.846 15.265 18.3586C14.7524 18.8712 14.7524 19.7023 15.265 20.2149C15.7775 20.7274 16.6086 20.7274 17.1212 20.2149C17.6338 19.7023 17.6338 18.8712 17.1212 18.3586Z" fill="black"/>
</svg>
