<svg width="40" height="40" viewBox="0 0 40 40" fill="none" xmlns="http://www.w3.org/2000/svg">
<path d="M3.33331 20C3.33331 13.7146 3.33331 10.5719 5.28593 8.61929C7.23856 6.66667 10.3813 6.66667 16.6666 6.66667H23.3333C29.6187 6.66667 32.7614 6.66667 34.714 8.61929C36.6666 10.5719 36.6666 13.7146 36.6666 20V23.3333C36.6666 29.6187 36.6666 32.7614 34.714 34.714C32.7614 36.6667 29.6187 36.6667 23.3333 36.6667H16.6666C10.3813 36.6667 7.23856 36.6667 5.28593 34.714C3.33331 32.7614 3.33331 29.6187 3.33331 23.3333V20Z" stroke="black" stroke-width="1.5"/>
<path d="M11.6667 6.66667V4.16667" stroke="black" stroke-width="1.5" stroke-linecap="round"/>
<path d="M28.3333 6.66667V4.16667" stroke="black" stroke-width="1.5" stroke-linecap="round"/>
<path d="M4.16669 15H35.8334" stroke="black" stroke-width="1.5" stroke-linecap="round"/>
</svg>
