<svg width="40" height="40" viewBox="0 0 40 40" fill="none" xmlns="http://www.w3.org/2000/svg">
<path d="M15 23.7255V28.3333C15 32.9357 18.731 36.6667 23.3333 36.6667H24.8039C27.9485 36.6667 30.5991 34.5517 31.4109 31.6667" stroke="black" stroke-width="1.5"/>
<path d="M9.04754 5H8.89475C8.37332 5 8.11261 5 7.89283 5.01944C5.4793 5.23286 3.56611 7.14605 3.35269 9.55957C3.33325 9.77936 3.33325 10.0401 3.33325 10.5615V12.0588C3.33325 18.5021 8.5566 23.7255 14.9999 23.7255C21.1803 23.7255 26.1904 18.7153 26.1904 12.535V10.5615C26.1904 10.0401 26.1904 9.77936 26.171 9.55957C25.9575 7.14605 24.0444 5.23286 21.6308 5.01944C21.411 5 21.1503 5 20.6289 5H20.4761" stroke="black" stroke-width="1.5" stroke-linecap="round"/>
<ellipse cx="31.6667" cy="26.6667" rx="5" ry="5" stroke="black" stroke-width="1.5"/>
<path d="M20 3.33333V6.66667" stroke="black" stroke-width="1.5" stroke-linecap="round"/>
<path d="M10 3.33333V6.66667" stroke="black" stroke-width="1.5" stroke-linecap="round"/>
</svg>
