<svg width="40" height="40" viewBox="0 0 40 40" fill="none" xmlns="http://www.w3.org/2000/svg">
<path d="M5 16.6667C5 10.3813 5 7.23858 6.95262 5.28595C8.90524 3.33333 12.0479 3.33333 18.3333 3.33333H21.6667C27.9521 3.33333 31.0948 3.33333 33.0474 5.28595C35 7.23858 35 10.3813 35 16.6667V23.3333C35 29.6187 35 32.7614 33.0474 34.714C31.0948 36.6667 27.9521 36.6667 21.6667 36.6667H18.3333C12.0479 36.6667 8.90524 36.6667 6.95262 34.714C5 32.7614 5 29.6187 5 23.3333V16.6667Z" stroke="black" stroke-width="1.5"/>
<path d="M13.3333 20H26.6666" stroke="black" stroke-width="1.5" stroke-linecap="round"/>
<path d="M13.3333 13.3333H26.6666" stroke="black" stroke-width="1.5" stroke-linecap="round"/>
<path d="M13.3333 26.6667H21.6666" stroke="black" stroke-width="1.5" stroke-linecap="round"/>
</svg>
