<svg width="40" height="40" viewBox="0 0 40 40" fill="none" xmlns="http://www.w3.org/2000/svg">
<path d="M3.33331 23.3333C3.33331 17.0479 3.33331 13.9052 5.28593 11.9526C7.23856 10 10.3813 10 16.6666 10H23.3333C29.6187 10 32.7614 10 34.714 11.9526C36.6666 13.9052 36.6666 17.0479 36.6666 23.3333C36.6666 29.6187 36.6666 32.7614 34.714 34.714C32.7614 36.6667 29.6187 36.6667 23.3333 36.6667H16.6666C10.3813 36.6667 7.23856 36.6667 5.28593 34.714C3.33331 32.7614 3.33331 29.6187 3.33331 23.3333Z" stroke="black" stroke-width="1.5"/>
<path d="M26.6666 10C26.6666 6.85731 26.6666 5.28596 25.6903 4.30965C24.714 3.33334 23.1427 3.33334 20 3.33334C16.8573 3.33334 15.2859 3.33334 14.3096 4.30965C13.3333 5.28596 13.3333 6.85731 13.3333 10" stroke="black" stroke-width="1.5"/>
<path d="M20 28.8889C21.841 28.8889 23.3334 27.6452 23.3334 26.1111C23.3334 24.577 21.841 23.3333 20 23.3333C18.1591 23.3333 16.6667 22.0897 16.6667 20.5556C16.6667 19.0214 18.1591 17.7778 20 17.7778M20 28.8889C18.1591 28.8889 16.6667 27.6452 16.6667 26.1111M20 28.8889V30M20 16.6667V17.7778M20 17.7778C21.841 17.7778 23.3334 19.0214 23.3334 20.5556" stroke="black" stroke-width="1.5" stroke-linecap="round"/>
</svg>
