<?xml version="1.0" encoding="utf-8"?>
<!-- Svg Vector Icons : http://www.onlinewebfonts.com/icon -->
<!DOCTYPE svg PUBLIC "-//W3C//DTD SVG 1.1//EN" "http://www.w3.org/Graphics/SVG/1.1/DTD/svg11.dtd">
<svg version="1.1" xmlns="http://www.w3.org/2000/svg" xmlns:xlink="http://www.w3.org/1999/xlink" x="0px" y="0px" viewBox="0 0 256 256" enable-background="new 0 0 256 256" xml:space="preserve">
<metadata> Svg Vector Icons : http://www.onlinewebfonts.com/icon </metadata>
<g><g><path fill="#000000" d="M231.5,184.6c2.1-3.9,4-7.9,5.7-12c5.9-14.1,8.8-29.2,8.8-44.6c0-65-52.9-117.9-117.9-117.9C63,10.1,10,63,10,128s52.9,117.9,117.9,117.9c6.4,0,12.7-0.5,18.9-1.5c13.3-2.1,26-6.5,37.7-12.9c6.1,7.6,15.5,12.5,26,12.5c18.4,0,33.3-14.9,33.3-33.3C243.9,200.1,239.1,190.6,231.5,184.6z M182.3,228.1c-11.2,6.1-23.3,10.3-36,12.3c-6,0.9-12.1,1.5-18.3,1.5c-62.8,0-113.9-51.2-113.9-113.9c0-62.8,51.2-113.9,113.9-113.9c62.8,0,113.9,51.2,113.9,113.9c0,14.9-2.8,29.5-8.4,43.2c-1.6,3.7-3.3,7.5-5.3,11.2c-5.1-3.2-11.1-4.9-17.6-4.9c-18.4,0-33.3,14.9-33.3,33.3C177.2,217,179.1,223,182.3,228.1z M234.4,214.1h-18.8v21h-9.8v-21h-19v-9.2h18.9V186h9.8v18.9h18.9L234.4,214.1L234.4,214.1z"/><path fill="#000000" d="M157.6,99.6c0,17.6-13.3,32-29.6,32c-16.4,0-29.6-14.3-29.6-32c0-17.6,13.3-32,29.6-32C144.3,67.8,157.6,82,157.6,99.6L157.6,99.6L157.6,99.6z M149.9,127.1c-5.5,6.4-13.2,9.3-21.9,9.3c-8.7,0-16.5-2.9-21.9-9.3c-20.9,8.7-35.7,29.2-35.7,53.3c0,0.7,0,1.3,0,1.9h115.1c0-0.7,0-1.3,0-1.9C185.6,156.4,170.8,135.7,149.9,127.1L149.9,127.1z"/></g></g>
</svg>