<svg width="28" height="28" viewBox="0 0 28 28" fill="none" xmlns="http://www.w3.org/2000/svg">
<path d="M16.9501 4.09832L18.1087 2.93972C20.0283 1.02009 23.1406 1.02009 25.0603 2.93972C26.9799 4.85935 26.9799 7.97169 25.0603 9.89132L23.9017 11.0499M16.9501 4.09832C16.9501 4.09832 17.0949 6.56035 19.2673 8.73272C21.4397 10.9051 23.9017 11.0499 23.9017 11.0499M16.9501 4.09832L6.29853 14.7499C5.57708 15.4713 5.21635 15.8321 4.90612 16.2298C4.54017 16.699 4.22642 17.2066 3.97043 17.7438C3.75342 18.1991 3.59209 18.6831 3.26945 19.651L1.90226 23.7526M23.9017 11.0499L13.2501 21.7015C12.5287 22.4229 12.1679 22.7836 11.7702 23.0939C11.301 23.4598 10.7934 23.7736 10.2562 24.0296C9.80087 24.2466 9.3169 24.4079 8.34897 24.7305L4.2474 26.0977M4.2474 26.0977L3.2448 26.4319C2.76847 26.5907 2.24332 26.4667 1.88829 26.1117C1.53326 25.7567 1.40928 25.2315 1.56806 24.7552L1.90226 23.7526M4.2474 26.0977L1.90226 23.7526" stroke="white" stroke-width="1.5"/>
</svg>
