<svg width="40" height="40" viewBox="0 0 40 40" fill="none" xmlns="http://www.w3.org/2000/svg">
<path d="M10.6614 25C13.7644 28.0524 17.5899 31.4661 19.2082 32.8947C19.4804 33.135 19.6165 33.2552 19.7753 33.3024C19.9139 33.3436 20.0655 33.3436 20.2041 33.3024C20.3629 33.2552 20.499 33.135 20.7713 32.8947C22.3895 31.4661 26.2151 28.0524 29.3181 25C30.8813 23.4622 32.2612 22.0162 33.0832 20.9619C33.7183 20.1471 34.1953 19.2582 34.5145 18.3333H22.1817C21.8661 18.3333 21.5775 18.5117 21.4363 18.794L19.1369 23.3929C18.8196 24.0275 17.905 24.0006 17.6256 23.3485L13.9393 14.7473C13.6786 14.1391 12.8471 14.0627 12.48 14.6133L10.2474 17.9622C10.0928 18.1941 9.83264 18.3333 9.55401 18.3333H5.47069C5.10153 17.251 4.95066 16.12 5.01405 15C5.14765 12.6395 6.23292 10.3282 8.23204 8.62547C11.9896 5.42507 16.9907 6.36522 19.9897 9.86025C22.9888 6.36522 27.9252 5.45873 31.7474 8.62547C32.8 9.49757 33.598 10.5379 34.14 11.6667" stroke="black" stroke-width="2" stroke-linecap="round" stroke-linejoin="round"/>
</svg>
