<svg width="40" height="40" viewBox="0 0 40 40" fill="none" xmlns="http://www.w3.org/2000/svg">
<path d="M10 5.83331C10 5.05674 10 4.66846 10.1269 4.36217C10.296 3.95379 10.6205 3.62934 11.0289 3.46018C11.3351 3.33331 11.7234 3.33331 12.5 3.33331H27.5C28.2766 3.33331 28.6649 3.33331 28.9711 3.46018C29.3795 3.62934 29.704 3.95379 29.8731 4.36217C30 4.66846 30 5.05674 30 5.83331C30 6.60988 30 6.99817 29.8731 7.30445C29.704 7.71283 29.3795 8.03729 28.9711 8.20645C28.6649 8.33331 28.2766 8.33331 27.5 8.33331H12.5C11.7234 8.33331 11.3351 8.33331 11.0289 8.20645C10.6205 8.03729 10.296 7.71283 10.1269 7.30445C10 6.99817 10 6.60988 10 5.83331Z" stroke="black" stroke-width="1.5"/>
<path d="M7.5 30H32.5" stroke="black" stroke-width="1.5" stroke-linecap="round"/>
<path d="M7.5 16.6667H32.5" stroke="black" stroke-width="1.5" stroke-linecap="round"/>
<path d="M9.16866 12.9984L13.1739 9.79419C14.0781 9.07081 14.5302 8.70912 15.0659 8.52122C15.6016 8.33331 16.1805 8.33331 17.3385 8.33331H22.7378C23.9063 8.33331 24.4905 8.33331 25.0303 8.52442C25.5701 8.71553 26.0242 9.08313 26.9325 9.81835L30.8613 12.9988C32.4249 14.2646 33.3333 16.1687 33.3333 18.1805V29.2749C33.3333 30.8211 32.7958 32.3193 31.8128 33.5129L31.2157 34.238C29.9493 35.7758 28.0616 36.6666 26.0695 36.6666H14.9282C13.9763 36.6666 13.5004 36.6666 13.0492 36.6047C11.711 36.421 10.4601 35.8352 9.46225 34.9247C9.12586 34.6177 8.82116 34.2521 8.21182 33.5209C7.2134 32.3228 6.66663 30.8126 6.66663 29.253V18.2041C6.66663 16.1789 7.58723 14.2635 9.16866 12.9984Z" stroke="black" stroke-width="1.5" stroke-linecap="round"/>
<path d="M20 20V26.6667M16.6666 23.3333L23.3333 23.3333" stroke="black" stroke-width="1.5" stroke-linecap="round"/>
</svg>
