<svg width="40" height="40" viewBox="0 0 40 40" fill="none" xmlns="http://www.w3.org/2000/svg">
<path d="M26.6667 20H23.3334M26.6667 25H23.3334M26.6667 30H23.3334M16.6667 20H13.3334M16.6667 25H13.3334M16.6667 30H13.3334M14.6667 36.6667H25.3334C28.1336 36.6667 29.5337 36.6667 30.6033 36.1217C31.5441 35.6423 32.309 34.8774 32.7884 33.9366C33.3334 32.8671 33.3334 31.4669 33.3334 28.6667V11.3333C33.3334 8.53307 33.3334 7.13293 32.7884 6.06338C32.309 5.12257 31.5441 4.35766 30.6033 3.8783C29.5337 3.33333 28.1336 3.33333 25.3334 3.33333H14.6667C11.8664 3.33333 10.4663 3.33333 9.39673 3.8783C8.45592 4.35766 7.69102 5.12257 7.21165 6.06338C6.66669 7.13293 6.66669 8.53307 6.66669 11.3333V28.6667C6.66669 31.4669 6.66669 32.8671 7.21165 33.9366C7.69102 34.8774 8.45592 35.6423 9.39673 36.1217C10.4663 36.6667 11.8664 36.6667 14.6667 36.6667ZM14.1667 13.3333H25.8334C26.6099 13.3333 26.9982 13.3333 27.3045 13.2065C27.7129 13.0373 28.0373 12.7128 28.2065 12.3045C28.3334 11.9982 28.3334 11.6099 28.3334 10.8333C28.3334 10.0568 28.3334 9.66847 28.2065 9.36219C28.0373 8.95381 27.7129 8.62935 27.3045 8.4602C26.9982 8.33333 26.6099 8.33333 25.8334 8.33333H14.1667C13.3901 8.33333 13.0018 8.33333 12.6955 8.4602C12.2872 8.62935 11.9627 8.95381 11.7936 9.36219C11.6667 9.66847 11.6667 10.0568 11.6667 10.8333C11.6667 11.6099 11.6667 11.9982 11.7936 12.3045C11.9627 12.7128 12.2872 13.0373 12.6955 13.2065C13.0018 13.3333 13.3901 13.3333 14.1667 13.3333Z" stroke="black" stroke-width="2" stroke-linecap="round"/>
</svg>
