<svg width="38" height="38" viewBox="0 0 38 38" fill="none" xmlns="http://www.w3.org/2000/svg">
<path d="M22.599 15.7471L22.145 16.6381L22.145 16.6381L22.599 15.7471ZM22.253 15.4011L23.144 14.9471V14.9471L22.253 15.4011ZM28.4138 16.2656L27.5227 16.7196L27.5227 16.7196L28.4138 16.2656ZM28.0678 15.9196L28.5218 15.0286V15.0286L28.0678 15.9196ZM28.0678 22.0804L28.5218 22.9714L28.5218 22.9714L28.0678 22.0804ZM28.4138 21.7344L27.5227 21.2804L27.5227 21.2804L28.4138 21.7344ZM22.253 22.5989L21.362 22.1449H21.362L22.253 22.5989ZM22.599 22.253L22.145 21.362V21.362L22.599 22.253ZM21.7345 28.4137L21.2805 27.5227L21.2805 27.5227L21.7345 28.4137ZM22.0804 28.0678L22.9714 28.5217L22.9714 28.5217L22.0804 28.0678ZM15.9197 28.0678L15.0287 28.5217H15.0287L15.9197 28.0678ZM16.2656 28.4137L16.7196 27.5227L16.7196 27.5227L16.2656 28.4137ZM15.4011 22.253L14.9471 23.144L14.9471 23.144L15.4011 22.253ZM15.7471 22.5989L16.6381 22.1449V22.1449L15.7471 22.5989ZM9.58633 21.7344L8.69532 22.1884V22.1884L9.58633 21.7344ZM9.9323 22.0804L10.3863 21.1894H10.3863L9.9323 22.0804ZM9.9323 15.9196L10.3863 16.8106L10.3863 16.8106L9.9323 15.9196ZM9.58633 16.2656L10.4773 16.7196L9.58633 16.2656ZM15.7471 15.4011L16.6381 15.8551V15.8551L15.7471 15.4011ZM15.4011 15.7471L15.8551 16.6381L15.4011 15.7471ZM21.7345 9.5863L22.1884 8.69529H22.1884L21.7345 9.5863ZM22.0804 9.93227L22.9714 9.47828L22.9714 9.47828L22.0804 9.93227ZM16.2656 9.5863L16.7196 10.4773L16.7196 10.4773L16.2656 9.5863ZM15.9197 9.93227L15.0287 9.47828L15.0287 9.47828L15.9197 9.93227ZM17.1 10.5H20.9V8.50001H17.1V10.5ZM16.8334 14.5667V10.7667H14.8334V14.5667H16.8334ZM10.7667 16.8333H14.5667V14.8333H10.7667V16.8333ZM10.5 20.9V17.1H8.50004V20.9H10.5ZM14.5667 21.1667H10.7667V23.1667H14.5667V21.1667ZM16.8334 27.2333V23.4333H14.8334V27.2333H16.8334ZM20.9 27.5H17.1V29.5H20.9V27.5ZM21.1667 23.4333V27.2333H23.1667V23.4333H21.1667ZM27.2334 21.1667H23.4334V23.1667H27.2334V21.1667ZM27.5 17.1V20.9H29.5V17.1H27.5ZM23.4334 16.8333H27.2334V14.8333H23.4334V16.8333ZM21.1667 10.7667V14.5667H23.1667V10.7667H21.1667ZM23.4334 14.8333C23.3202 14.8333 23.2318 14.8333 23.1555 14.8321C23.0791 14.8309 23.0293 14.8287 22.9948 14.8259C22.9247 14.8201 22.9732 14.8154 23.053 14.856L22.145 16.6381C22.3941 16.765 22.6381 16.8034 22.832 16.8192C23.0142 16.8341 23.2282 16.8333 23.4334 16.8333V14.8333ZM21.1667 14.5667C21.1667 14.7719 21.1659 14.9859 21.1808 15.1681C21.1967 15.3619 21.235 15.6059 21.362 15.8551L23.144 14.9471C23.1847 15.0269 23.1799 15.0754 23.1742 15.0052C23.1714 14.9707 23.1691 14.9209 23.1679 14.8446C23.1667 14.7683 23.1667 14.6798 23.1667 14.5667H21.1667ZM23.053 14.8561C23.0922 14.876 23.124 14.9079 23.144 14.9471L21.362 15.8551C21.5338 16.1922 21.8079 16.4663 22.145 16.6381L23.053 14.8561ZM29.5 17.1C29.5 16.8948 29.5008 16.6808 29.4859 16.4986C29.4701 16.3048 29.4317 16.0608 29.3048 15.8116L27.5227 16.7196C27.4821 16.6398 27.4868 16.5913 27.4926 16.6615C27.4954 16.696 27.4976 16.7458 27.4988 16.8221C27.5 16.8984 27.5 16.9869 27.5 17.1H29.5ZM27.2334 16.8333C27.3465 16.8333 27.435 16.8334 27.5113 16.8346C27.5876 16.8358 27.6374 16.838 27.6719 16.8408C27.7421 16.8465 27.6936 16.8513 27.6138 16.8106L28.5218 15.0286C28.2726 14.9017 28.0286 14.8633 27.8348 14.8475C27.6526 14.8326 27.4386 14.8333 27.2334 14.8333V16.8333ZM29.3048 15.8116C29.133 15.4745 28.8589 15.2004 28.5218 15.0286L27.6138 16.8106C27.5746 16.7907 27.5427 16.7588 27.5227 16.7196L29.3048 15.8116ZM27.2334 23.1667C27.4386 23.1667 27.6526 23.1675 27.8348 23.1526C28.0286 23.1367 28.2726 23.0983 28.5218 22.9714L27.6138 21.1894C27.6936 21.1487 27.7421 21.1535 27.6719 21.1592C27.6374 21.162 27.5876 21.1643 27.5113 21.1655C27.435 21.1667 27.3465 21.1667 27.2334 21.1667V23.1667ZM27.5 20.9C27.5 21.0131 27.5 21.1016 27.4988 21.1779C27.4976 21.2542 27.4954 21.3041 27.4926 21.3385C27.4868 21.4087 27.4821 21.3602 27.5227 21.2804L29.3048 22.1884C29.4317 21.9393 29.4701 21.6953 29.4859 21.5014C29.5008 21.3192 29.5 21.1052 29.5 20.9H27.5ZM28.5218 22.9714C28.8589 22.7996 29.133 22.5255 29.3048 22.1884L27.5227 21.2804C27.5427 21.2412 27.5746 21.2094 27.6138 21.1894L28.5218 22.9714ZM23.1667 23.4333C23.1667 23.3202 23.1667 23.2318 23.1679 23.1554C23.1691 23.0791 23.1714 23.0293 23.1742 22.9948C23.1799 22.9246 23.1847 22.9731 23.144 23.0529L21.362 22.1449C21.235 22.3941 21.1967 22.6381 21.1808 22.8319C21.1659 23.0141 21.1667 23.2282 21.1667 23.4333H23.1667ZM23.4334 21.1667C23.2282 21.1667 23.0142 21.1659 22.832 21.1808C22.6381 21.1966 22.3941 21.235 22.145 21.362L23.053 23.144C22.9732 23.1846 22.9247 23.1799 22.9948 23.1741C23.0293 23.1713 23.0791 23.1691 23.1555 23.1679C23.2318 23.1667 23.3202 23.1667 23.4334 23.1667V21.1667ZM23.144 23.0529C23.124 23.0921 23.0922 23.124 23.053 23.144L22.145 21.362C21.8079 21.5337 21.5338 21.8078 21.362 22.1449L23.144 23.0529ZM20.9 29.5C21.1052 29.5 21.3193 29.5008 21.5014 29.4859C21.6953 29.4701 21.9393 29.4317 22.1884 29.3047L21.2805 27.5227C21.3603 27.4821 21.4087 27.4868 21.3386 27.4925C21.3041 27.4954 21.2543 27.4976 21.1779 27.4988C21.1016 27.5 21.0132 27.5 20.9 27.5V29.5ZM21.1667 27.2333C21.1667 27.3465 21.1667 27.4349 21.1655 27.5112C21.1643 27.5876 21.1621 27.6374 21.1592 27.6719C21.1535 27.742 21.1488 27.6936 21.1894 27.6138L22.9714 28.5217C23.0984 28.2726 23.1368 28.0286 23.1526 27.8347C23.1675 27.6526 23.1667 27.4385 23.1667 27.2333H21.1667ZM22.1884 29.3047C22.5256 29.133 22.7997 28.8589 22.9714 28.5217L21.1894 27.6138C21.2094 27.5746 21.2413 27.5427 21.2805 27.5227L22.1884 29.3047ZM14.8334 27.2333C14.8334 27.4385 14.8326 27.6526 14.8475 27.8347C14.8633 28.0286 14.9017 28.2726 15.0287 28.5217L16.8107 27.6138C16.8513 27.6936 16.8466 27.742 16.8408 27.6719C16.838 27.6374 16.8358 27.5876 16.8346 27.5112C16.8334 27.4349 16.8334 27.3465 16.8334 27.2333H14.8334ZM17.1 27.5C16.9869 27.5 16.8985 27.5 16.8221 27.4988C16.7458 27.4976 16.696 27.4954 16.6615 27.4925C16.5913 27.4868 16.6398 27.4821 16.7196 27.5227L15.8116 29.3047C16.0608 29.4317 16.3048 29.4701 16.4986 29.4859C16.6808 29.5008 16.8949 29.5 17.1 29.5V27.5ZM15.0287 28.5217C15.2004 28.8589 15.4745 29.133 15.8116 29.3047L16.7196 27.5227C16.7588 27.5427 16.7907 27.5746 16.8107 27.6138L15.0287 28.5217ZM14.5667 23.1667C14.6798 23.1667 14.7683 23.1667 14.8446 23.1679C14.9209 23.1691 14.9708 23.1713 15.0052 23.1741C15.0754 23.1799 15.0269 23.1846 14.9471 23.144L15.8551 21.362C15.606 21.235 15.362 21.1966 15.1681 21.1808C14.9859 21.1659 14.7719 21.1667 14.5667 21.1667V23.1667ZM16.8334 23.4333C16.8334 23.2282 16.8342 23.0141 16.8193 22.8319C16.8034 22.6381 16.765 22.3941 16.6381 22.1449L14.8561 23.0529C14.8154 22.9731 14.8202 22.9246 14.8259 22.9948C14.8287 23.0293 14.8309 23.0791 14.8322 23.1554C14.8333 23.2318 14.8334 23.3202 14.8334 23.4333H16.8334ZM14.9471 23.144C14.9079 23.124 14.8761 23.0921 14.8561 23.0529L16.6381 22.1449C16.4663 21.8078 16.1922 21.5337 15.8551 21.362L14.9471 23.144ZM8.50004 20.9C8.50004 21.1052 8.49926 21.3192 8.51415 21.5014C8.52999 21.6953 8.56838 21.9393 8.69532 22.1884L10.4773 21.2804C10.518 21.3602 10.5132 21.4087 10.5075 21.3385C10.5047 21.3041 10.5025 21.2542 10.5013 21.1779C10.5001 21.1016 10.5 21.0131 10.5 20.9H8.50004ZM10.7667 21.1667C10.6536 21.1667 10.5651 21.1667 10.4888 21.1655C10.4125 21.1643 10.3627 21.162 10.3282 21.1592C10.258 21.1535 10.3065 21.1487 10.3863 21.1894L9.47831 22.9714C9.72745 23.0983 9.97146 23.1367 10.1653 23.1526C10.3475 23.1675 10.5615 23.1667 10.7667 23.1667V21.1667ZM8.69532 22.1884C8.86709 22.5255 9.14119 22.7996 9.47831 22.9714L10.3863 21.1894C10.4255 21.2094 10.4574 21.2412 10.4773 21.2804L8.69532 22.1884ZM10.7667 14.8333C10.5615 14.8333 10.3475 14.8326 10.1653 14.8474C9.97146 14.8633 9.72745 14.9017 9.47831 15.0286L10.3863 16.8106C10.3065 16.8513 10.258 16.8465 10.3282 16.8408C10.3627 16.838 10.4125 16.8358 10.4888 16.8346C10.5651 16.8334 10.6536 16.8333 10.7667 16.8333V14.8333ZM10.5 17.1C10.5 16.9869 10.5001 16.8984 10.5013 16.8221C10.5025 16.7458 10.5047 16.696 10.5075 16.6615C10.5132 16.5913 10.518 16.6398 10.4773 16.7196L8.69532 15.8116C8.56838 16.0608 8.52999 16.3048 8.51415 16.4986C8.49926 16.6808 8.50004 16.8948 8.50004 17.1H10.5ZM9.47831 15.0286C9.14119 15.2004 8.86709 15.4745 8.69532 15.8116L10.4773 16.7196C10.4574 16.7588 10.4255 16.7907 10.3863 16.8106L9.47831 15.0286ZM14.8334 14.5667C14.8334 14.6798 14.8333 14.7683 14.8322 14.8446C14.8309 14.9209 14.8287 14.9707 14.8259 15.0052C14.8202 15.0754 14.8154 15.0269 14.8561 14.9471L16.6381 15.8551C16.765 15.6059 16.8034 15.3619 16.8193 15.1681C16.8342 14.9859 16.8334 14.7719 16.8334 14.5667H14.8334ZM14.5667 16.8333C14.7719 16.8333 14.9859 16.8341 15.1681 16.8192C15.362 16.8034 15.606 16.765 15.8551 16.6381L14.9471 14.856C15.0269 14.8154 15.0754 14.8201 15.0052 14.8259C14.9708 14.8287 14.9209 14.8309 14.8446 14.8321C14.7683 14.8333 14.6798 14.8333 14.5667 14.8333V16.8333ZM14.8561 14.9471C14.8761 14.9079 14.9079 14.876 14.9471 14.856L15.8551 16.6381C16.1922 16.4663 16.4663 16.1922 16.6381 15.8551L14.8561 14.9471ZM20.9 10.5C21.0132 10.5 21.1016 10.5 21.1779 10.5012C21.2543 10.5024 21.3041 10.5047 21.3386 10.5075C21.4087 10.5132 21.3603 10.518 21.2805 10.4773L22.1884 8.69529C21.9393 8.56835 21.6953 8.52996 21.5014 8.51412C21.3193 8.49923 21.1052 8.50001 20.9 8.50001V10.5ZM23.1667 10.7667C23.1667 10.5615 23.1675 10.3475 23.1526 10.1653C23.1368 9.97143 23.0984 9.72742 22.9714 9.47828L21.1894 10.3863C21.1488 10.3065 21.1535 10.258 21.1592 10.3281C21.1621 10.3626 21.1643 10.4124 21.1655 10.4888C21.1667 10.5651 21.1667 10.6536 21.1667 10.7667H23.1667ZM21.2805 10.4773C21.2413 10.4573 21.2094 10.4255 21.1894 10.3863L22.9714 9.47828C22.7997 9.14115 22.5256 8.86706 22.1884 8.69529L21.2805 10.4773ZM17.1 8.50001C16.8949 8.50001 16.6808 8.49923 16.4986 8.51412C16.3048 8.52996 16.0608 8.56835 15.8116 8.69529L16.7196 10.4773C16.6398 10.518 16.5913 10.5132 16.6615 10.5075C16.696 10.5047 16.7458 10.5024 16.8221 10.5012C16.8985 10.5 16.9869 10.5 17.1 10.5V8.50001ZM16.8334 10.7667C16.8334 10.6535 16.8334 10.5651 16.8346 10.4888C16.8358 10.4124 16.838 10.3626 16.8408 10.3281C16.8466 10.258 16.8513 10.3065 16.8107 10.3863L15.0287 9.47828C14.9017 9.72742 14.8633 9.97143 14.8475 10.1653C14.8326 10.3475 14.8334 10.5615 14.8334 10.7667H16.8334ZM15.8116 8.69529C15.4745 8.86706 15.2004 9.14116 15.0287 9.47828L16.8107 10.3863C16.7907 10.4255 16.7588 10.4573 16.7196 10.4773L15.8116 8.69529ZM19 2.58334C28.0667 2.58334 35.4167 9.93333 35.4167 19H37.4167C37.4167 8.82876 29.1713 0.583343 19 0.583344V2.58334ZM35.4167 19C35.4167 28.0667 28.0667 35.4167 19 35.4167V37.4167C29.1713 37.4167 37.4167 29.1713 37.4167 19H35.4167ZM19 35.4167C9.93337 35.4167 2.58337 28.0667 2.58337 19H0.583374C0.583374 29.1713 8.8288 37.4167 19 37.4167V35.4167ZM2.58337 19C2.58337 9.93334 9.93336 2.58334 19 2.58334V0.583344C8.82879 0.583344 0.583374 8.82877 0.583374 19H2.58337Z" fill="black"/>
</svg>
