<svg width="40" height="40" viewBox="0 0 40 40" fill="none" xmlns="http://www.w3.org/2000/svg">
<path d="M15.8334 14.1667H24.1667M20 10V18.3333M13.3334 25H26.6667M13.3334 30H26.6667M12 36.6667H28C29.8669 36.6667 30.8003 36.6667 31.5133 36.3034C32.1405 35.9838 32.6505 35.4738 32.97 34.8466C33.3334 34.1336 33.3334 33.2002 33.3334 31.3333V8.66666C33.3334 6.79982 33.3334 5.8664 32.97 5.15336C32.6505 4.52615 32.1405 4.01622 31.5133 3.69664C30.8003 3.33333 29.8669 3.33333 28 3.33333H12C10.1332 3.33333 9.19976 3.33333 8.48672 3.69664C7.85951 4.01622 7.34958 4.52615 7.03 5.15336C6.66669 5.8664 6.66669 6.79982 6.66669 8.66666V31.3333C6.66669 33.2002 6.66669 34.1336 7.03 34.8466C7.34958 35.4738 7.85951 35.9838 8.48672 36.3034C9.19976 36.6667 10.1332 36.6667 12 36.6667Z" stroke="black" stroke-width="2" stroke-linecap="round"/>
</svg>
