<svg width="40" height="40" viewBox="0 0 40 40" fill="none" xmlns="http://www.w3.org/2000/svg">
<path d="M8.48672 36.3034L8.94071 35.4124L8.48672 36.3034ZM7.03 34.8466L7.92101 34.3927L7.03 34.8466ZM32.97 34.8466L32.079 34.3927L32.97 34.8466ZM31.5133 36.3034L31.0593 35.4124L31.5133 36.3034ZM31.5133 3.69666L31.0593 4.58766L31.5133 3.69666ZM32.97 5.15338L32.079 5.60737L32.97 5.15338ZM8.48672 3.69666L8.94071 4.58766L8.48672 3.69666ZM7.03 5.15338L7.92101 5.60737L7.03 5.15338ZM13.3334 9.00001C12.7811 9.00001 12.3334 9.44773 12.3334 10C12.3334 10.5523 12.7811 11 13.3334 11V9.00001ZM26.6667 11C27.219 11 27.6667 10.5523 27.6667 10C27.6667 9.44773 27.219 9.00001 26.6667 9.00001V11ZM13.3334 15.6667C12.7811 15.6667 12.3334 16.1144 12.3334 16.6667C12.3334 17.219 12.7811 17.6667 13.3334 17.6667V15.6667ZM26.6667 17.6667C27.219 17.6667 27.6667 17.219 27.6667 16.6667C27.6667 16.1144 27.219 15.6667 26.6667 15.6667V17.6667ZM26.6153 24.165L27.6077 24.2885V24.2885L26.6153 24.165ZM13.3847 24.165L14.3771 24.0415H14.3771L13.3847 24.165ZM12 4.33334H28V2.33334H12V4.33334ZM32.3334 8.66668V31.3333H34.3334V8.66668H32.3334ZM28 35.6667H12V37.6667H28V35.6667ZM7.66669 31.3333V8.66668H5.66669V31.3333H7.66669ZM12 35.6667C11.0501 35.6667 10.3978 35.6659 9.89213 35.6246C9.39813 35.5842 9.13276 35.5102 8.94071 35.4124L8.03273 37.1944C8.55372 37.4598 9.11158 37.5675 9.72926 37.6179C10.3353 37.6675 11.0831 37.6667 12 37.6667V35.6667ZM5.66669 31.3333C5.66669 32.2503 5.66591 32.9981 5.71542 33.6041C5.76589 34.2218 5.87354 34.7797 6.13899 35.3006L7.92101 34.3927C7.82315 34.2006 7.74914 33.9352 7.70878 33.4412C7.66746 32.9356 7.66669 32.2833 7.66669 31.3333H5.66669ZM8.94071 35.4124C8.50166 35.1887 8.14471 34.8317 7.92101 34.3927L6.13899 35.3006C6.55444 36.116 7.21736 36.7789 8.03273 37.1944L8.94071 35.4124ZM32.3334 31.3333C32.3334 32.2833 32.3326 32.9356 32.2913 33.4412C32.2509 33.9352 32.1769 34.2006 32.079 34.3927L33.861 35.3006C34.1265 34.7797 34.2342 34.2218 34.2846 33.6041C34.3341 32.9981 34.3334 32.2503 34.3334 31.3333H32.3334ZM28 37.6667C28.9169 37.6667 29.6648 37.6675 30.2708 37.6179C30.8885 37.5675 31.4463 37.4598 31.9673 37.1944L31.0593 35.4124C30.8673 35.5102 30.6019 35.5842 30.1079 35.6246C29.6022 35.6659 28.9499 35.6667 28 35.6667V37.6667ZM32.079 34.3927C31.8553 34.8317 31.4984 35.1887 31.0593 35.4124L31.9673 37.1944C32.7827 36.7789 33.4456 36.116 33.861 35.3006L32.079 34.3927ZM28 4.33334C28.9499 4.33334 29.6022 4.33412 30.1079 4.37544C30.6019 4.4158 30.8673 4.48981 31.0593 4.58766L31.9673 2.80565C31.4463 2.54019 30.8885 2.43255 30.2708 2.38208C29.6648 2.33257 28.9169 2.33334 28 2.33334V4.33334ZM34.3334 8.66668C34.3334 7.74976 34.3341 7.00193 34.2846 6.39592C34.2342 5.77824 34.1265 5.22037 33.861 4.69938L32.079 5.60737C32.1769 5.79942 32.2509 6.06478 32.2913 6.55878C32.3326 7.06446 32.3334 7.71675 32.3334 8.66668H34.3334ZM31.0593 4.58766C31.4984 4.81137 31.8553 5.16832 32.079 5.60737L33.861 4.69938C33.4456 3.88402 32.7827 3.2211 31.9673 2.80565L31.0593 4.58766ZM12 2.33334C11.0831 2.33334 10.3353 2.33257 9.72926 2.38208C9.11158 2.43255 8.55372 2.54019 8.03273 2.80565L8.94071 4.58766C9.13276 4.48981 9.39813 4.4158 9.89213 4.37544C10.3978 4.33412 11.0501 4.33334 12 4.33334V2.33334ZM7.66669 8.66668C7.66669 7.71676 7.66746 7.06446 7.70878 6.55878C7.74914 6.06478 7.82315 5.79942 7.92101 5.60737L6.13899 4.69938C5.87354 5.22037 5.76589 5.77824 5.71542 6.39592C5.66591 7.00193 5.66669 7.74976 5.66669 8.66668H7.66669ZM8.03273 2.80565C7.21736 3.2211 6.55444 3.88402 6.13899 4.69938L7.92101 5.60737C8.14471 5.16832 8.50166 4.81137 8.94071 4.58766L8.03273 2.80565ZM13.3334 11H26.6667V9.00001H13.3334V11ZM13.3334 17.6667H26.6667V15.6667H13.3334V17.6667ZM25.623 24.0415C25.2752 26.8365 22.8895 29 20 29V31C23.9111 31 27.1368 28.0723 27.6077 24.2885L25.623 24.0415ZM20 29C17.1106 29 14.7249 26.8365 14.3771 24.0415L12.3924 24.2885C12.8633 28.0723 16.089 31 20 31V29ZM27.5 24.3333H33.3334V22.3333H27.5V24.3333ZM12.5 22.3333H6.66669V24.3333H12.5V22.3333ZM14.3771 24.0415C14.2677 23.1625 13.5399 22.3333 12.5 22.3333V24.3333C12.4775 24.3333 12.4547 24.3284 12.4352 24.3202C12.4166 24.3124 12.4054 24.3034 12.3998 24.298C12.3944 24.2928 12.3928 24.2896 12.3927 24.2893C12.3924 24.2888 12.3924 24.2887 12.3924 24.2885L14.3771 24.0415ZM27.6077 24.2885C27.6076 24.2887 27.6076 24.2888 27.6074 24.2893C27.6072 24.2896 27.6057 24.2928 27.6002 24.298C27.5947 24.3034 27.5834 24.3124 27.5649 24.3202C27.5454 24.3284 27.5225 24.3333 27.5 24.3333V22.3333C26.4601 22.3333 25.7324 23.1625 25.623 24.0415L27.6077 24.2885Z" fill="black"/>
</svg>
