<svg width="29" height="25" viewBox="0 0 29 25" fill="none" xmlns="http://www.w3.org/2000/svg">
<path d="M14.3951 11.1131C14.279 11.1029 14.1397 11.1029 14.0121 11.1131C11.2501 11.0313 9.05673 9.03771 9.05673 6.58404C9.05673 4.07924 11.3545 2.04474 14.2094 2.04474C17.0526 2.04474 19.362 4.07924 19.362 6.58404C19.3504 9.03771 17.1571 11.0313 14.3951 11.1131Z" stroke="#292D32" stroke-width="1.5" stroke-linecap="round" stroke-linejoin="round"/>
<path d="M8.59255 14.8856C5.78413 16.5418 5.78413 19.2409 8.59255 20.8869C11.7839 22.768 17.0178 22.768 20.2092 20.8869C23.0176 19.2307 23.0176 16.5316 20.2092 14.8856C17.0294 13.0147 11.7955 13.0147 8.59255 14.8856Z" stroke="#292D32" stroke-width="1.5" stroke-linecap="round" stroke-linejoin="round"/>
</svg>
